<?xml version="1.0" encoding="UTF-8"?><svg xmlns="http://www.w3.org/2000/svg" viewBox="0 0 388 74"><defs><style>.d,.e{fill:#fff;}.f{fill:#325b6d;}.e{font-family:Georgia, Georgia;font-size:15px;stroke:#fff;stroke-miterlimit:10;stroke-width:.15px;}</style></defs><g id="a"/><g id="b"><g id="c"><rect class="f" width="388" height="74" rx="19.97" ry="19.97"/><text class="e" transform="translate(116.05 31.44)"><tspan x="0" y="0">This column denotes the performance </tspan><tspan x="28.28" y="18">elements that Chen executed.</tspan></text><path class="d" d="M36.6,37.96c8.17,3.04,17.03,5.43,25.82,4.41,4.4-.51,8.34-1.99,12.31-3.87s8.11-3.36,12.67-3.59c5.09-.26,10.15,.53,15.16,1.33,1.89,.3,2.7-2.59,.8-2.89-8.66-1.39-17.71-2.7-26.09,.72-4.07,1.66-7.83,3.88-12.16,4.83s-8.77,.88-13.09,.22c-5.02-.77-9.89-2.28-14.63-4.05-1.81-.67-2.59,2.22-.8,2.89h0Z"/><path class="d" d="M47.63,30.51c-5.2,1.25-10.38,2.61-15.52,4.07-1.18,.34-1.34,1.65-.66,2.51,2.94,3.72,6.48,6.92,10.44,9.54,1.62,1.07,3.12-1.53,1.51-2.59-3.75-2.47-7.05-5.54-9.83-9.07l-.66,2.51c5.15-1.46,10.32-2.82,15.52-4.07,1.88-.45,1.08-3.34-.8-2.89h0Z"/><path class="d" d="M43.5,32.76l-5.39,3.05h1.51l-1.85-1.27c-.43-.3-1.08-.26-1.51,0-.5,.29-.67,.75-.74,1.3-.29,2.28,.17,4.57,1.16,6.63,.32,.67,1.24,.88,1.87,.61s1.13-1.07,.87-1.77l-1.41-3.83c-.27-.73-1.03-1.31-1.85-1.05-.72,.23-1.34,1.06-1.05,1.85l1.41,3.83,2.74-1.16c-.06-.12-.12-.25-.17-.37,.06,.14,.04,.09,0-.02-.09-.24-.17-.47-.25-.71-.14-.46-.24-.93-.33-1.4-.05-.29,0,.1-.01-.08,0-.11-.02-.23-.03-.34-.02-.23-.03-.46-.03-.68,0-.5,.02-1,.09-1.5l-2.26,1.3,1.85,1.27c.44,.3,1.07,.25,1.51,0l5.39-3.05c.68-.39,.97-1.38,.54-2.05s-1.32-.95-2.05-.54h0Z"/><path class="d" d="M37.9,37.43c.76,1.3,1.55,2.59,2.26,3.91,.17,.31,.33,.63,.48,.95,0,.02,.18,.44,.07,.16,.07,.18,.13,.35,.19,.53,.1,.31,.19,.62,.25,.94,.02,.09,.03,.18,.05,.27-.02-.17-.02-.16,0,.01,.01,.19,.02,.37,.02,.56l2.8-.76c-.94-2.09-2.18-4.01-3.65-5.77-.5-.6-1.61-.56-2.12,0-.59,.64-.54,1.48,0,2.12,.17,.2,.33,.41,.5,.61,.1,.12-.08-.11,.07,.1,.08,.12,.17,.23,.25,.35,.31,.43,.6,.87,.88,1.31,.56,.9,1.05,1.83,1.48,2.79,.26,.58,1.12,.88,1.69,.69,.63-.2,1.11-.77,1.1-1.45-.01-1.67-.59-3.22-1.35-4.69s-1.59-2.78-2.4-4.16c-.4-.68-1.37-.98-2.05-.54s-.96,1.33-.54,2.05h0Z"/><path class="d" d="M46.99,30.92c-1.25,.93-2.58,1.75-3.99,2.42-.7,.33-1.07,.49-1.9,.78-.75,.26-1.51,.48-2.28,.67s-1.29,1.09-1.05,1.85c.26,.79,1.03,1.25,1.85,1.05,3.2-.78,6.25-2.2,8.89-4.17,.63-.47,1.01-1.32,.54-2.05-.4-.62-1.38-1.04-2.05-.54h0Z"/></g></g></svg>